# xmcd
#
# Track frame offsets: 
#        150
#        12637
#        28909
#
# Disc length: 621 seconds
#
# Revision: 2
# Processed by: cddbd v1.5.2PL0 Copyright (c) Steve Scherf et al.
# Submitted via: ExactAudioCopyFreeDBPlugin 1.0
#
DISCID=21026b03
DTITLE=The Pepper Pots - Waiting for the Christmas Light
DYEAR=2009
DGENRE=Holiday
TTITLE0=Waiting for the Christmas Light
TTITLE1=Christams Time is Here Again
TTITLE2=Your're Still In My Mind
EXTD=
EXTT0=
EXTT1=
EXTT2=
PLAYORDER=
